<?xml version="1.0" encoding="iso-8859-1"?>
<!-- Generator: Adobe Illustrator 19.0.0, SVG Export Plug-In . SVG Version: 6.00 Build 0)  -->
<svg version="1.1" id="Layer_1" xmlns="http://www.w3.org/2000/svg" xmlns:xlink="http://www.w3.org/1999/xlink" x="0px" y="0px"
	 viewBox="0 0 512 512" style="enable-background:new 0 0 512 512;" xml:space="preserve">
<path style="fill:#74C8EE;" d="M375.83,40.851H136.17c-17.974,0-32.681,14.706-32.681,32.681L256,95.319l152.511-21.787
	C408.511,55.557,393.804,40.851,375.83,40.851z"/>
<path style="fill:#3AAADC;" d="M103.489,73.532v152.511c0,17.974,14.706,32.681,32.681,32.681h239.66
	c17.974,0,32.681-14.706,32.681-32.681V73.532H103.489z"/>
<polygon style="fill:#008CCB;" points="323.565,503.83 192.842,503.83 203.736,367.66 312.672,367.66 "/>
<path style="fill:#3AAADC;" d="M147.064,291.404c0,60.164,48.772,108.936,108.936,108.936s108.936-48.772,108.936-108.936
	L256,280.511L147.064,291.404z"/>
<ellipse style="fill:#AEE6FF;" cx="256" cy="133.447" rx="108.936" ry="125.277"/>
<path style="fill:#74C8EE;" d="M343.149,258.723H168.851c-17.974,0-32.681,14.706-32.681,32.681h239.66
	C375.83,273.43,361.123,258.723,343.149,258.723z"/>
<path d="M375.83,32.681h-43.135C312.133,12.332,285.307,0,256,0s-56.133,12.332-76.694,32.681H136.17
	c-22.526,0-40.851,18.325-40.851,40.851v152.511c0,22.526,18.325,40.851,40.851,40.851c-5.119,6.831-8.17,15.321-8.17,24.511
	c0,4.513,3.657,8.17,8.17,8.17h3.015c2.61,37.137,22.893,71.074,54.521,90.986l-9.009,112.618c-0.181,2.272,0.595,4.518,2.142,6.194
	c1.547,1.674,3.723,2.628,6.003,2.628h130.723c2.28,0,4.457-0.953,6.003-2.628c1.547-1.675,2.323-3.922,2.142-6.194l-9.235-115.421
	c28.461-19.697,47.811-51.66,50.341-88.183h3.012c4.513,0,8.17-3.657,8.17-8.17c0-9.19-3.051-17.679-8.193-24.511
	c22.548,0,40.874-18.325,40.874-40.851V73.532C416.681,51.006,398.356,32.681,375.83,32.681z M375.83,49.021
	c10.651,0,19.733,6.831,23.105,16.34h-42.256c-2.999-5.738-6.362-11.199-10.057-16.34H375.83z M356.766,133.447
	c0,64.572-45.203,117.106-100.766,117.106s-100.766-52.534-100.766-117.106S200.437,16.34,256,16.34S356.766,68.875,356.766,133.447
	z M136.17,49.021h29.208c-3.695,5.142-7.058,10.603-10.057,16.34h-42.256C116.438,55.853,125.52,49.021,136.17,49.021z
	 M111.66,226.043V81.702h36.398c-5.899,15.92-9.164,33.406-9.164,51.745c0,50.435,24.682,94.42,61.003,117.106H136.17
	C122.656,250.553,111.66,239.557,111.66,226.043z M366.26,283.234h-34.004c-4.513,0-8.17,3.657-8.17,8.17
	c0,4.513,3.657,8.17,8.17,8.17h24.178C352.26,351.331,308.812,392.17,256,392.17c-6.532,0-13.092-0.636-19.495-1.89
	c-4.426-0.862-8.72,2.02-9.589,6.448c-0.867,4.427,2.02,8.72,6.448,9.589c7.436,1.455,15.052,2.194,22.636,2.194
	c18.197,0,35.436-4.172,50.814-11.609l7.901,98.758H201.692l8.706-108.834c0.005-0.066,0.002-0.132,0.005-0.198
	c0.009-0.16,0.015-0.32,0.014-0.48c0-0.125-0.005-0.249-0.011-0.374c-0.007-0.133-0.015-0.266-0.028-0.399
	c-0.014-0.146-0.033-0.291-0.054-0.434c-0.016-0.11-0.036-0.219-0.057-0.328c-0.031-0.157-0.065-0.312-0.105-0.466
	c-0.025-0.098-0.052-0.195-0.081-0.293c-0.046-0.155-0.095-0.306-0.149-0.456c-0.036-0.101-0.075-0.2-0.115-0.3
	c-0.057-0.137-0.114-0.275-0.179-0.409c-0.052-0.112-0.109-0.221-0.167-0.331c-0.061-0.115-0.124-0.23-0.191-0.341
	c-0.072-0.122-0.148-0.242-0.227-0.359c-0.063-0.096-0.127-0.19-0.195-0.282c-0.09-0.124-0.184-0.245-0.282-0.365
	c-0.069-0.083-0.137-0.165-0.209-0.246c-0.101-0.114-0.207-0.227-0.316-0.337c-0.082-0.083-0.165-0.162-0.251-0.243
	c-0.104-0.095-0.209-0.188-0.318-0.28c-0.106-0.088-0.215-0.172-0.325-0.256c-0.096-0.072-0.193-0.143-0.293-0.211
	c-0.135-0.093-0.273-0.18-0.415-0.264c-0.054-0.033-0.105-0.071-0.161-0.103c-29.108-16.543-48.01-46.493-50.71-79.497h143.994
	c4.513,0,8.17-3.657,8.17-8.17c0-4.513-3.657-8.17-8.17-8.17H145.74c3.373-9.51,12.459-16.34,23.111-16.34h174.298
	C353.801,266.894,362.887,273.724,366.26,283.234z M375.83,250.553h-63.727c36.32-22.686,61.003-66.671,61.003-117.106
	c0-18.338-3.265-35.825-9.164-51.745h36.398v144.34C400.34,239.557,389.344,250.553,375.83,250.553z"/>
<circle cx="209.702" cy="87.149" r="8.17"/>
<circle cx="302.298" cy="87.149" r="8.17"/>
<g>
</g>
<g>
</g>
<g>
</g>
<g>
</g>
<g>
</g>
<g>
</g>
<g>
</g>
<g>
</g>
<g>
</g>
<g>
</g>
<g>
</g>
<g>
</g>
<g>
</g>
<g>
</g>
<g>
</g>
</svg>
